<svg width="13" height="12" viewBox="0 0 13 12" fill="none" xmlns="http://www.w3.org/2000/svg">
<g clip-path="url(#clip0_1702_831)">
<path d="M10.8143 7.9992C10.7754 7.95233 10.7372 7.90545 10.6997 7.86022C10.1841 7.23655 9.87213 6.86014 9.87213 5.0946C9.87213 4.18054 9.65346 3.43054 9.22244 2.86804C8.90463 2.45249 8.47502 2.13726 7.90877 1.90429C7.90149 1.90023 7.89498 1.89492 7.88955 1.88858C7.68588 1.20655 7.12854 0.749756 6.49995 0.749756C5.87135 0.749756 5.31424 1.20655 5.11057 1.88788C5.10514 1.89398 5.09872 1.89913 5.09159 1.90311C3.77018 2.4471 3.12799 3.49077 3.12799 5.09389C3.12799 6.86014 2.81651 7.23655 2.30042 7.85952C2.26292 7.90475 2.22471 7.95069 2.18581 7.9985C2.08531 8.1197 2.02163 8.26716 2.00232 8.42342C1.983 8.57967 2.00886 8.7382 2.07682 8.88022C2.22143 9.18491 2.52963 9.37405 2.88143 9.37405H10.121C10.4712 9.37405 10.7773 9.18514 10.9224 8.88186C10.9906 8.7398 11.0167 8.58115 10.9976 8.42471C10.9784 8.26827 10.9148 8.1206 10.8143 7.9992V7.9992Z" fill="white"/>
<path d="M6.49996 11.25C6.83864 11.2497 7.17093 11.1578 7.46159 10.9839C7.75225 10.8101 7.99044 10.5608 8.15089 10.2626C8.15845 10.2483 8.16219 10.2323 8.16173 10.2161C8.16128 10.2 8.15665 10.1842 8.1483 10.1703C8.13995 10.1565 8.12816 10.145 8.11408 10.1371C8.09999 10.1292 8.08409 10.125 8.06792 10.125H4.93246C4.91627 10.1249 4.90034 10.1291 4.88622 10.137C4.87211 10.1449 4.86029 10.1564 4.85191 10.1702C4.84353 10.1841 4.83888 10.1999 4.83842 10.2161C4.83795 10.2322 4.84169 10.2483 4.84926 10.2626C5.00969 10.5608 5.24784 10.81 5.53846 10.9839C5.82907 11.1577 6.16132 11.2497 6.49996 11.25Z" fill="white"/>
</g>
<defs>
<clipPath id="clip0_1702_831">
<rect width="12" height="12" fill="white" transform="translate(0.5)"/>
</clipPath>
</defs>
</svg>
