<svg width="28" height="21" viewBox="0 0 28 21" fill="none" xmlns="http://www.w3.org/2000/svg">
<path d="M20.1296 15.5959L17.373 12.8394C18.0367 11.9559 18.395 10.8805 18.3937 9.77549C18.3937 6.95303 16.0975 4.65674 13.275 4.65674C10.4525 4.65674 8.15625 6.95303 8.15625 9.77549C8.15625 12.5979 10.4525 14.8942 13.275 14.8942C14.38 14.8954 15.4554 14.5372 16.3389 13.8735L19.0954 16.6301C19.2349 16.7548 19.4169 16.8214 19.604 16.8162C19.7911 16.8109 19.9691 16.7343 20.1014 16.6019C20.2338 16.4696 20.3104 16.2916 20.3157 16.1045C20.3209 15.9174 20.2543 15.7354 20.1296 15.5959ZM9.61875 9.77549C9.61875 9.05235 9.83318 8.34545 10.2349 7.74418C10.6367 7.14292 11.2077 6.67429 11.8758 6.39755C12.5439 6.12082 13.2791 6.04841 13.9883 6.18949C14.6975 6.33057 15.349 6.67879 15.8604 7.19013C16.3717 7.70146 16.7199 8.35294 16.861 9.06219C17.0021 9.77143 16.9297 10.5066 16.6529 11.1747C16.3762 11.8428 15.9076 12.4138 15.3063 12.8155C14.705 13.2173 13.9981 13.4317 13.275 13.4317C12.3057 13.4306 11.3764 13.045 10.6909 12.3596C10.0055 11.6741 9.61991 10.7448 9.61875 9.77549Z" fill="#2B0A2F"/>
</svg>
